<svg height="512" viewBox="0 0 37 61" width="512" xmlns="http://www.w3.org/2000/svg"><g id="033---Peace-Hand" fill="none"><g id="Blues" transform="translate(1 2)"><path id="Shape" d="m35 29.23c0 1.38-.1 1.26-5.18 9.33-1.0437649 1.7498805-3.3058532 2.3265789-5.06 1.29-1.6722672-1.0838349-2.1701111-3.3063523-1.12-5l4.62-7.37c.810118-1.4103317 2.4633058-2.1047776 4.0375533-1.6960339 1.5742475.4087438 2.6807721 1.8197323 2.7024467 3.4460339z" fill="#e8edfc"/><path id="Shape" d="m29.93 26c1.2747462.5647805 2.0893494 1.8358764 2.07 3.23 0 1.38-.1 1.26-5.18 9.33-.4061298.6348324-.9905222 1.1357402-1.68 1.44 1.7075977.7583775 3.7127232.1285624 4.68-1.47 5.08-8.07 5.18-8 5.18-9.33-.0133959-1.2111932-.6400179-2.3329749-1.6643229-2.979479-1.024305-.6465042-2.3065514-.7295309-3.4056771-.220521z" fill="#cad9fc"/><path id="Shape" d="m28.36 26.12c-.0163329.7858913-.2443409 1.5528273-.66 2.22l-4.87 7.77c-.9218419 1.6981999-3.0099459 2.3801765-4.7564297 1.5534544-1.7464838-.8267222-2.5426531-2.8740094-1.8135703-4.6634544h.74c2.7614237 0 5-2.2385763 5-5v-1c0-.5522847-.4477153-1-1-1h-.47l1-1.61c2.11-3.39 6.86-2.1 6.83 1.73z" fill="#e8edfc"/><path id="Shape" d="m23.35 22.78c1.2795654.6077529 2.0683893 1.9250886 2 3.34-.0163329.7858913-.2443409 1.5528273-.66 2.22l-4.87 7.77c-.4336144.7004164-1.0676991 1.2543695-1.82 1.59 1.7745236.7670665 3.8422517.0835556 4.81-1.59l4.87-7.77c.4156591-.6671727.6436671-1.4341087.66-2.22.0556022-1.2265094-.533703-2.3929225-1.5540086-3.0758525s-2.3232892-.783099-3.4359914-.2641475z" fill="#cad9fc"/><path id="Shape" d="m24.3 4c0 .46.33-1.47-3.94 22h-7.51c-1.2936628-.0007268-2.5529137.4166851-3.59 1.19-2.23 1.66-6 4.94-7.56 9.09.09-.26.2-.52 2.23-5.59.70068099-1.7583452.88793602-3.6794431.54-5.54l-3.39-18.3c-.31163864-1.42446445.17655365-2.90565717 1.27409944-3.86566283 1.09754578-.96000565 2.63053765-1.24671024 4.00084985-.74825054s2.36081719 1.70310216 2.58505071 3.14391337l3.57 16.23c0 .2761424.2238576.5.5.5s.5-.2238576.5-.5l2.89-18.4c.4462048-1.96919178 2.2900267-3.29709563 4.2991186-3.09618643 2.009092.20090919 3.5534513 1.86763115 3.6008814 3.88618643z" fill="#e8edfc"/><path id="Shape" d="m24.3 4c-.002387-1.8912039-1.3289597-3.5223044-3.18-3.91-.7795438-.1621141-1.5894867-.0925911-2.33.2 1.5155687.60832923 2.5091308 2.07690101 2.51 3.71 0 .46.33-1.47-3.94 22h3c4.27-23.47 3.94-21.54 3.94-22z" fill="#cad9fc"/><path id="Shape" d="m34 31.92v8.08c-.0531807 2.7835895-.7369997 5.5188654-2 8-4.23 7.52-4 6.62-4 9 0 .5522847-.4477153 1-1 1h-17c-.55228475 0-1-.4477153-1-1 .11285486-1.0586574-.15671876-2.1227638-.76-3l-5-6.9c-1.45906652-1.9931016-2.24382115-4.3999161-2.24-6.87 0-5.37 4-9.86 8.26-13 1.0320787-.787601 2.2917762-1.2191965 3.59-1.23h8.15c.5522847 0 1 .4477153 1 1v1c0 2.7614237-2.2385763 5-5 5h-.74c-.7290828 1.789445.0670865 3.8367322 1.8135703 4.6634544 1.7464838.8267221 3.8345878.1447455 4.7564297-1.5534544l.81-1.29c-1.0501111 1.6936477-.5522672 3.9161651 1.12 5 1.7541468 1.0365789 4.0162351.4598805 5.06-1.29z" fill="#e8edfc"/><path id="Shape" d="m31 36.69v3.31c-.0531807 2.7835895-.7369997 5.5188654-2 8-4.23 7.52-4 6.62-4 9 0 .5522847-.4477153 1-1 1h3c.5522847 0 1-.4477153 1-1 0-2.38-.23-1.48 4-9 1.2630003-2.4811346 1.9468193-5.2164105 2-8v-8.08z" fill="#cad9fc"/></g><path id="Shape" d="m11 55c.1128549-1.0586574-.1567188-2.1227638-.76-3l-5-6.9c-1.45906652-1.9931016-2.24382115-4.3999161-2.24-6.87 0-2.81 1-4.82 2.93-9.54.70068099-1.7583452.88793602-3.6794431.54-5.54l-3.39-18.3c-.3497666-1.86684695.66151036-3.72224766 2.42-4.44-.70406021-.29617988-1.48030889-.37624141-2.23-.23-2.17017256.40915969-3.59814238 2.49963588-3.19 4.67l3.39 18.3c.34793602 1.8605569.16068099 3.7816548-.54 5.54-1.93 4.72-2.93 6.73-2.93 9.54.00097886 2.4507678.7781386 4.8382585 2.22 6.82l5 6.9c.62209987.8880541.89938742 1.9723196.78 3.05 0 .5522847.44771525 1 1 1h3c-.5522847 0-1-.4477153-1-1z" fill="#fff" transform="translate(2 4)"/><path id="Rectangle-path" d="m1.805 8.776h2v8h-2z" fill="#fff" transform="matrix(.983 -.182 .182 .983 -2.281 .725)"/><g fill="#428dff"><path id="Shape" d="m30.27 27.2c-.2510414-1.5867081-1.330659-2.9184028-2.8311413-3.4921773-1.5004822-.5737746-3.1931812-.3021953-4.4388587.7121773 3.54-19.31 3.3-17.83 3.3-18.42.0296721-2.58882471-1.9217666-4.77211024-4.49768-5.03204096s-4.9241932 1.48947807-5.41232 4.03204096l-2.47 15.8-3-13.6c-.2294299-1.84045897-1.45877707-3.4027079-3.19367164-4.05850369-1.73489457-.6557958-3.69025982-.29737854-5.0797648.93111778-1.38950497 1.22849632-1.98482715 3.12520603-1.54656356 4.92738591.1049341.55228475.63771525.9149341 1.19.81s.9149341-.63771525.81-1.19c-.25712157-1.08466886.10837297-2.22246854.94906755-2.95448674.84069459-.7320182 2.01795217-.93753944 3.05694575-.53367019s1.76838506 1.35052781 1.8939867 2.45815693l3.57 16.24c.171736.6895427.8010092 1.166038 1.5112858 1.1443685s1.3093323-.5356392 1.4387142-1.2343685l2.84-18.36c.1634065-.77569065.6271828-1.45517696 1.29-1.89.9221555-.60728984 2.1033659-.65894094 3.0750106-.13446178.9716446.52447915 1.5766487 1.54030195 1.5749894 2.64446178 0 .34.22-1-3.77 21h-6.68c-1.5074276-.0036208-2.9749289.4843761-4.18 1.39-1.15465265.8550688-2.24737925 1.7907368-3.27 2.8.61-3 .09-4-1.88-14.66-.10217269-.5522847-.63271526-.9171727-1.185-.815-.55228473.1021727-.91717266.6327153-.815 1.185l1.94 10.43c.78 3.66-1.26 6.34-2.8 10.84-1.34070517 3.8742012-.69810373 8.1594562 1.72 11.47l5 6.9c.49831967.7176032.71867938 1.5919336.62 2.46 0 1.1045695.8954305 2 2 2h17c1.1045695 0 2-.8954305 2-2 0-2.18-.28-1.14 3.85-8.48 1.3619062-2.6370333 2.0976195-5.5525112 2.15-8.52v-7.8l.27-.42c1.1643827-1.7541061.9860924-4.0754634-.4324995-5.6311859s-3.713696-1.9468544-5.5675005-.9488141zm2.19 1.44c.958983.0170451 1.8313534.5586991 2.2719449 1.4106486.4405916.8519495.3784087 1.8769141-.1619449 2.6693514l-4.57 7.28c-.5163086.9414274-1.5564809 1.4706042-2.62142 1.3336204-1.0649392-.1369839-1.9373297-.9121751-2.19858-1.9536204-.1631286-.716809-.0335511-1.4690784.36-2.09 5.63-9 3.94-6.3 4.59-7.34.5059497-.801762 1.3820747-1.2943473 2.33-1.31zm-4.1-.53c-.0478135.8159751-.3444567 1.5977171-.85 2.24 0 0-4.51 7.18-4.51 7.23-1.64 2.62-5.32 1.51-4.93-1.58 3.2863395-.0383432 5.9302237-2.7134368 5.93-6v-1c-.0023138-.6617111-.3317712-1.2794436-.88-1.65l.27-.43c1.54-2.46 5-1.66 4.97 1.19zm-12.08 9.89h-1.28c-.5522847 0-1-.4477153-1-1s.4477153-1 1-1h1.05c-.0658769.6754324.012521 1.3571535.23 2zm17.72 4c-.0590609 2.6109842-.6978003 5.1761889-1.87 7.51-4.25 7.55-4.13 6.77-4.13 9.49h-17c.1200106-1.2945335-.2354672-2.588473-1-3.64l-5-6.9c-1.70734419-2.3445994-2.3762458-5.2877665-1.85-8.14.85-4.08 4.37-7.84 7.71-10.32.8654809-.6491106 1.9181489-1 3-1h8.14v1c0 2.209139-1.790861 4-4 4h-3c-1.6568542 0-3 1.3431458-3 3s1.3431458 3 3 3h1.41c1.5919184-.0015675 3.0332331.9409816 3.67 2.4.1300875.346215.4406428.5923594.8074159.6399532.366773.0475938.7298662-.1111355.9440096-.4126818.2141434-.3015464.2443654-.6966644.0785745-1.0272714-.1040082-.2347784-.2243014-.4619989-.36-.68.6268018-.150121 1.2179996-.4219361 1.74-.8.5252303 1.7555962 2.0423706 3.0319971 3.8619416 3.2491297 1.8195709.2171326 3.5944628-.6664244 4.5180584-2.2491297l2.33-3.74z"/><path id="Shape" d="m2.83 13.78c-.55228475 0-1-.4477153-1-1s.44771525-1 1-1 1 .4477153 1 1-.44771525 1-1 1z"/></g></g></svg>